<?xml version="1.0" encoding="UTF-8" standalone="no"?>
<!-- Created with Inkscape (http://www.inkscape.org/) -->

<svg
   xmlns:dc="http://purl.org/dc/elements/1.1/"
   xmlns:cc="http://creativecommons.org/ns#"
   xmlns:rdf="http://www.w3.org/1999/02/22-rdf-syntax-ns#"
   xmlns:svg="http://www.w3.org/2000/svg"
   xmlns="http://www.w3.org/2000/svg"
   xmlns:sodipodi="http://sodipodi.sourceforge.net/DTD/sodipodi-0.dtd"
   xmlns:inkscape="http://www.inkscape.org/namespaces/inkscape"
   width="744.09448819"
   height="1052.3622047"
   id="svg2"
   version="1.1"
   inkscape:version="0.48.2 r9819"
   sodipodi:docname="drawing.svg">
  <defs
     id="defs4" />
  <sodipodi:namedview
     id="base"
     pagecolor="#ffffff"
     bordercolor="#666666"
     borderopacity="1.0"
     inkscape:pageopacity="0.0"
     inkscape:pageshadow="2"
     inkscape:zoom="0.49840087"
     inkscape:cx="98.992936"
     inkscape:cy="877.88302"
     inkscape:document-units="px"
     inkscape:current-layer="layer1"
     showgrid="false"
     inkscape:window-width="1280"
     inkscape:window-height="699"
     inkscape:window-x="0"
     inkscape:window-y="0"
     inkscape:window-maximized="1" />
  <metadata
     id="metadata7">
    <rdf:RDF>
      <cc:Work
         rdf:about="">
        <dc:format>image/svg+xml</dc:format>
        <dc:type
           rdf:resource="http://purl.org/dc/dcmitype/StillImage" />
        <dc:title></dc:title>
      </cc:Work>
    </rdf:RDF>
  </metadata>
  <g
     inkscape:label="Layer 1"
     inkscape:groupmode="layer"
     id="layer1">
    <path
       sodipodi:type="arc"
       style="fill:#000080;fill-opacity:1;fill-rule:nonzero;stroke:none"
       id="path3755"
       sodipodi:cx="275.92813"
       sodipodi:cy="480.06677"
       sodipodi:rx="159.13316"
       sodipodi:ry="150.37354"
       d="m 435.06129,480.06677 a 159.13316,150.37354 0 1 1 -318.26632,0 159.13316,150.37354 0 1 1 318.26632,0 z"
       transform="matrix(0.94260679,0,0,0.99751595,-70.453874,-4.4932648)" />
    <path
       transform="matrix(1.6326429,0.9426068,-0.66501064,1.1518322,197.75179,-260.54933)"
       d="m 435.06129,480.06677 a 159.13316,150.37354 0 1 1 -318.26632,0 159.13316,150.37354 0 1 1 318.26632,0 z"
       sodipodi:ry="150.37354"
       sodipodi:rx="159.13316"
       sodipodi:cy="480.06677"
       sodipodi:cx="275.92813"
       id="path3757"
       style="fill:#ffffff;fill-opacity:1;fill-rule:nonzero;stroke:none"
       sodipodi:type="arc" />
    <path
       sodipodi:type="arc"
       style="fill:#ff7f2a;fill-opacity:1;fill-rule:nonzero;stroke:none"
       id="path3801"
       sodipodi:cx="418.25003"
       sodipodi:cy="379.7323"
       sodipodi:rx="9.5273352"
       sodipodi:ry="8.5746021"
       d="m 427.77737,379.7323 a 9.5273352,8.5746021 0 1 1 -19.05467,0 9.5273352,8.5746021 0 1 1 19.05467,0 z"
       transform="matrix(0.78720858,0,0,0.87467615,-258.86959,143.93747)" />
    <path
       transform="matrix(0.78720858,0,0,0.87467615,-237.90945,78.198855)"
       d="m 427.77737,379.7323 a 9.5273352,8.5746021 0 1 1 -19.05467,0 9.5273352,8.5746021 0 1 1 19.05467,0 z"
       sodipodi:ry="8.5746021"
       sodipodi:rx="9.5273352"
       sodipodi:cy="379.7323"
       sodipodi:cx="418.25003"
       id="path3803"
       style="fill:#ff7f2a;fill-opacity:1;fill-rule:nonzero;stroke:none"
       sodipodi:type="arc" />
    <path
       sodipodi:type="arc"
       style="fill:#ff7f2a;fill-opacity:1;fill-rule:nonzero;stroke:none"
       id="path3805"
       sodipodi:cx="418.25003"
       sodipodi:cy="379.7323"
       sodipodi:rx="9.5273352"
       sodipodi:ry="8.5746021"
       d="m 427.77737,379.7323 a 9.5273352,8.5746021 0 1 1 -19.05467,0 9.5273352,8.5746021 0 1 1 19.05467,0 z"
       transform="matrix(0.78720858,0,0,0.87467615,-189.32004,33.420379)" />
    <path
       transform="matrix(0.78720858,0,0,0.87467615,-118.81775,13.412974)"
       d="m 427.77737,379.7323 a 9.5273352,8.5746021 0 1 1 -19.05467,0 9.5273352,8.5746021 0 1 1 19.05467,0 z"
       sodipodi:ry="8.5746021"
       sodipodi:rx="9.5273352"
       sodipodi:cy="379.7323"
       sodipodi:cx="418.25003"
       id="path3807"
       style="fill:#ff7f2a;fill-opacity:1;fill-rule:nonzero;stroke:none"
       sodipodi:type="arc" />
    <path
       sodipodi:type="arc"
       style="fill:#ff7f2a;fill-opacity:1;fill-rule:nonzero;stroke:none"
       id="path3809"
       sodipodi:cx="418.25003"
       sodipodi:cy="379.7323"
       sodipodi:rx="9.5273352"
       sodipodi:ry="8.5746021"
       d="m 427.77737,379.7323 a 9.5273352,8.5746021 0 1 1 -19.05467,0 9.5273352,8.5746021 0 1 1 19.05467,0 z"
       transform="matrix(0.78720858,0,0,0.87467615,-243.62584,213.48702)" />
    <g
       id="g3951"
       transform="translate(0,-19.509955)"
       inkscape:export-filename="/Users/gvincent/Desktop/g3967.png"
       inkscape:export-xdpi="300.02725"
       inkscape:export-ydpi="300.02725">
      <path
         inkscape:connector-curvature="0"
         id="path3842"
         d="m 197.18457,28.25548 c -6.06705,0 -11.98589,0.585862 -17.75,1.625 l 2.375,9.65625 c 4.25447,-0.730094 8.59641,-1.168893 13.03125,-1.28125 0.77194,-0.01956 1.5671,0 2.34375,0 49.70563,0 90,40.294372 90,90 0,49.70563 -40.29437,90 -90,90 -38.96269,0 -72.10473,-24.76407 -84.625,-59.40625 l -9.84375,2.25 c 13.58364,39.10019 50.7402,67.15625 94.46875,67.15625 55.22847,0 100,-44.77152 100,-100 0,-55.228477 -44.77153,-100 -100,-100 z"
         style="fill:#22508f;fill-opacity:0.94117647;fill-rule:nonzero;stroke:none" />
      <path
         inkscape:connector-curvature="0"
         id="path3830"
         d="m 173.30721,31.757732 c -43.24651,11.02144 -75.25,50.22806 -75.25,96.906248 0,8.40514 1.04702,16.57521 3,24.375 l 9.84375,-1.90625 c -1.84486,-7.1804 -2.84375,-14.71272 -2.84375,-22.46875 0,-42.039858 28.84909,-77.328138 67.8125,-87.218748 l -2.5625,-9.6875 z"
         style="fill:#ff6600;fill-opacity:1;fill-rule:nonzero;stroke:none" />
      <path
         inkscape:connector-curvature="0"
         id="path3853"
         d="m 177.6373,50.770714 c -34.50797,8.878507 -60.03125,40.22078 -60.03125,77.499996 0,6.70365 0.85307,13.18364 2.40625,19.40625 L 197.23105,128.20821 177.6998,50.770714 c -0.0196,0.005 -0.0429,-0.005 -0.0625,0 z"
         style="fill:#ff6600;fill-opacity:1;fill-rule:nonzero;stroke:none" />
    </g>
    <g
       id="g3018"
       inkscape:export-filename="/Users/gvincent/Desktop/g3967.png"
       inkscape:export-xdpi="300.02725"
       inkscape:export-ydpi="300.02725">
      <g
         transform="matrix(0.99902446,0,0,1,-2.6184179,-2.4341295)"
         inkscape:export-ydpi="300.02725"
         inkscape:export-xdpi="300.02725"
         id="g3967">
        <text
           xml:space="preserve"
           style="font-size:72.29537964px;font-style:normal;font-variant:normal;font-weight:normal;font-stretch:normal;line-height:100%;letter-spacing:12.90988922px;word-spacing:0px;fill:#22508a;fill-opacity:1;stroke:none;font-family:Open Sans;-inkscape-font-specification:Open Sans"
           x="300.73666"
           y="130.23819"
           id="text3866"
           sodipodi:linespacing="100%"><tspan
             sodipodi:role="line"
             x="300.73666"
             y="130.23819"
             style="font-size:92.95120239px;font-style:normal;font-variant:normal;font-weight:normal;font-stretch:normal;letter-spacing:7px;fill:#22508a;fill-opacity:1;font-family:Lato;-inkscape-font-specification:Lato"
             id="tspan3870">11<tspan
   style="font-size:32px;letter-spacing:7px"
   id="tspan3922">H</tspan>42<tspan
   style="font-size:32px;letter-spacing:7px"
   id="tspan3930">.com</tspan></tspan><tspan
             sodipodi:role="line"
             x="300.73666"
             y="223.18939"
             style="font-size:20px;font-style:normal;font-variant:normal;font-weight:normal;font-stretch:normal;letter-spacing:7px;fill:#ff6600;fill-opacity:1;font-family:Lato;-inkscape-font-specification:Lato"
             id="tspan3924" /></text>
        <text
           xml:space="preserve"
           style="font-size:56px;font-style:normal;font-variant:normal;font-weight:normal;font-stretch:normal;line-height:100%;letter-spacing:10px;word-spacing:0px;fill:#000000;fill-opacity:1;stroke:none;font-family:Open Sans;-inkscape-font-specification:Open Sans"
           x="310.37668"
           y="158.22545"
           id="text3938"
           sodipodi:linespacing="100%"><tspan
             sodipodi:role="line"
             id="tspan3940"
             x="310.37668"
             y="158.22545"
             style="font-size:20px;letter-spacing:1px;fill:#ff6600" /></text>
      </g>
      <g
         transform="matrix(1.0095945,0,0,1,-7.7480151,-6)"
         id="g3002"
         inkscape:export-xdpi="300.02725"
         inkscape:export-ydpi="300.02725">
        <text
           sodipodi:linespacing="100%"
           id="text3004"
           y="130.23819"
           x="300.73666"
           style="font-size:72.29537964px;font-style:normal;font-variant:normal;font-weight:normal;font-stretch:normal;line-height:100%;letter-spacing:12.90988922px;word-spacing:0px;fill:#22508a;fill-opacity:1;stroke:none;font-family:Open Sans;-inkscape-font-specification:Open Sans"
           xml:space="preserve"><tspan
             id="tspan3006"
             style="font-size:92.95120239px;font-style:normal;font-variant:normal;font-weight:normal;font-stretch:normal;letter-spacing:7px;fill:#22508a;fill-opacity:1;font-family:Lato;-inkscape-font-specification:Lato"
             y="0"
             x="0"
             sodipodi:role="line"><tspan
               id="tspan3010"
               style="font-size:32px;letter-spacing:7px" /></tspan><tspan
             id="tspan3012"
             style="font-size:20px;font-style:normal;font-variant:normal;font-weight:normal;font-stretch:normal;letter-spacing:7px;fill:#ff6600;fill-opacity:1;font-family:Lato;-inkscape-font-specification:Lato"
             y="92.951202"
             x="0"
             sodipodi:role="line" /></text>
        <text
           sodipodi:linespacing="100%"
           id="text3014"
           y="158.22545"
           x="310.37668"
           style="font-size:56px;font-style:normal;font-variant:normal;font-weight:normal;font-stretch:normal;line-height:100%;letter-spacing:10px;word-spacing:0px;fill:#000000;fill-opacity:1;stroke:none;font-family:Open Sans;-inkscape-font-specification:Open Sans"
           xml:space="preserve"><tspan
             style="font-size:20px;letter-spacing:1px;fill:#ff6600"
             y="158.22545"
             x="310.37668"
             id="tspan3016"
             sodipodi:role="line">accélérateur de projets numériques</tspan></text>
      </g>
    </g>
  </g>
</svg>
