<?xml version="1.0" standalone="no"?>
<!DOCTYPE svg PUBLIC "-//W3C//DTD SVG 20010904//EN"
 "http://www.w3.org/TR/2001/REC-SVG-20010904/DTD/svg10.dtd">
<svg version="1.0" xmlns="http://www.w3.org/2000/svg"
 width="700.000000pt" height="700.000000pt" viewBox="0 0 700.000000 700.000000"
 preserveAspectRatio="xMidYMid meet">
<metadata>
Created by potrace 1.11, written by Peter Selinger 2001-2013
</metadata>
<g transform="translate(0.000000,700.000000) scale(0.100000,-0.100000)"
fill="#000000" stroke="none">
<path d="M3298 6295 c-2 -2 -30 -5 -63 -8 -33 -3 -60 -6 -60 -7 0 -1 -16 -3
-35 -4 -69 -6 -150 -18 -154 -25 -3 -3 10 -65 27 -136 l32 -130 90 13 c102 15
505 21 605 9 65 -8 253 -40 300 -51 14 -3 36 -8 50 -11 102 -20 357 -115 500
-185 90 -44 292 -162 316 -184 6 -6 37 -29 69 -51 91 -64 214 -174 326 -290
238 -248 430 -559 547 -885 43 -121 102 -341 102 -382 0 -14 3 -28 7 -31 3 -4
8 -19 9 -34 2 -16 6 -50 9 -78 31 -270 25 -509 -21 -780 -14 -83 -46 -210 -74
-300 -18 -55 -33 -104 -34 -110 0 -5 -3 -12 -7 -15 -3 -3 -13 -27 -24 -55 -35
-95 -170 -362 -200 -395 -8 -9 -15 -20 -15 -23 0 -4 -12 -25 -27 -46 -16 -21
-35 -49 -43 -61 -19 -28 -94 -124 -145 -186 -74 -89 -247 -253 -364 -344 -17
-14 -37 -29 -44 -35 -66 -54 -262 -174 -387 -236 -222 -110 -517 -203 -720
-226 -25 -3 -47 -8 -50 -12 -3 -3 -27 -7 -55 -9 -100 -7 -501 -6 -545 1 -25 3
-67 9 -95 13 -27 3 -92 14 -144 25 -52 10 -98 16 -102 14 -4 -3 -9 -1 -11 3
-1 4 -46 20 -98 34 -138 38 -267 89 -415 164 -149 74 -136 67 -275 158 -145
96 -297 222 -411 341 -89 93 -129 138 -129 144 0 4 -13 20 -28 37 -16 16 -55
67 -88 114 -32 47 -62 87 -66 88 -5 2 -8 8 -8 13 0 5 -17 37 -39 72 -55 90
-124 229 -161 322 -38 95 -46 106 -74 100 -11 -2 -49 -10 -83 -16 -34 -7 -60
-15 -59 -18 2 -3 -8 -6 -23 -7 -51 -2 -84 -14 -73 -27 6 -7 11 -16 11 -22 2
-19 24 -80 33 -91 5 -7 10 -21 13 -32 11 -58 221 -449 265 -492 3 -3 25 -34
49 -69 47 -69 53 -77 150 -189 69 -80 178 -191 256 -262 99 -89 328 -258 420
-310 140 -79 297 -160 320 -165 5 -1 33 -12 60 -24 28 -13 55 -24 60 -25 6 -1
15 -4 20 -7 6 -3 30 -12 55 -19 25 -7 50 -17 55 -20 6 -4 35 -13 65 -20 30 -7
62 -16 71 -21 23 -12 303 -67 376 -74 34 -3 72 -8 85 -11 43 -10 433 -11 528
-2 134 13 355 53 470 84 30 8 62 17 70 19 8 2 16 4 18 5 1 2 5 3 10 4 68 18
270 94 324 122 18 10 35 19 38 20 30 8 70 27 70 33 0 4 6 8 13 8 25 1 314 176
402 245 32 25 145 117 175 143 84 71 262 258 336 350 175 221 356 534 428 740
15 44 31 87 35 95 8 15 18 48 62 197 11 40 18 77 14 83 -3 5 -2 10 2 10 9 0
40 154 49 240 3 25 7 51 9 58 7 20 19 239 18 332 0 94 -11 291 -18 330 -2 14
-6 46 -9 71 -5 40 -17 103 -47 247 -4 23 -20 80 -34 127 -14 46 -28 94 -30
106 -2 11 -8 26 -13 33 -5 6 -14 31 -21 56 -20 70 -152 349 -206 435 -14 22
-28 47 -31 55 -4 8 -17 29 -29 45 -12 17 -24 35 -26 40 -9 22 -123 175 -131
175 -4 0 -8 6 -8 14 0 8 -8 21 -18 28 -9 7 -30 31 -47 53 -52 70 -295 307
-369 360 -16 11 -36 27 -45 36 -9 8 -38 31 -66 50 -27 19 -55 39 -62 46 -7 6
-37 26 -65 43 -29 17 -75 45 -103 62 -147 91 -523 257 -547 242 -4 -3 -8 -1
-8 5 0 5 -28 16 -62 24 -35 9 -110 27 -168 42 -58 14 -121 28 -140 30 -19 3
-46 7 -60 10 -14 3 -47 8 -75 11 -27 3 -66 8 -85 10 -42 6 -447 14 -452 9z"/>
<path d="M2725 6179 c-33 -10 -78 -24 -100 -31 -135 -39 -398 -161 -561 -259
-685 -412 -1157 -1083 -1313 -1867 -6 -29 -14 -76 -17 -105 -4 -29 -8 -55 -10
-58 -9 -16 -19 -204 -19 -369 0 -251 15 -403 62 -607 12 -53 21 -73 32 -73 20
0 252 47 257 52 2 2 -4 33 -12 68 -22 91 -21 88 -40 218 -29 203 -24 523 10
752 10 63 53 243 81 335 178 585 583 1097 1126 1422 159 96 362 184 544 239
61 18 110 36 109 41 -6 49 -70 263 -78 262 -6 0 -38 -9 -71 -20z"/>
<path d="M2815 5636 c-288 -95 -512 -216 -742 -403 -89 -71 -246 -226 -294
-287 -13 -16 -33 -40 -45 -53 -39 -42 -172 -247 -227 -349 -109 -205 -203
-488 -231 -694 -2 -19 -7 -55 -11 -80 -3 -25 -8 -63 -10 -85 -6 -53 -6 -333
-1 -365 2 -14 7 -52 10 -85 12 -117 45 -275 58 -275 6 0 118 27 251 61 133 34
248 62 257 64 8 2 96 24 195 50 99 25 187 47 195 49 8 2 188 48 400 101 212
54 410 104 440 111 30 7 135 33 233 58 99 25 180 46 182 46 2 0 -19 87 -46
193 -27 105 -51 201 -53 212 -2 11 -32 128 -66 260 -34 132 -63 247 -65 255
-4 18 -292 1160 -306 1213 -5 20 -13 37 -17 36 -4 0 -52 -15 -107 -33z"/>
</g>
</svg>
